<svg xmlns="http://www.w3.org/2000/svg" viewBox="-0.5 -0.5 16 16" fill="currentColor"  height="16" width="16"><path d="M6.934617187500001 1.280771484375v-0.565388671875c0 -0.435234375 0.47115234375000004 -0.7072499999999999 0.84807421875 -0.48963867187500004 0.174931640625 0.100998046875 0.28269140625 0.2876484375 0.28269140625 0.48963867187500004v0.565388671875c0 0.43522851562500003 -0.47115234375000004 0.7072499999999999 -0.84807421875 0.4896328125 -0.174931640625 -0.1009921875 -0.28269140625 -0.287642578125 -0.28269140625 -0.4896328125ZM7.5 2.976919921875c-3.481869140625 0 -5.65803515625 3.769236328125 -3.9170976562499997 6.7846171875 1.740931640625 3.0153867187500003 6.0932636718749995 3.0153867187500003 7.8341953124999995 0 0.396984375 -0.6875917968749999 0.6059765625 -1.46757421875 0.6059765625 -2.261537109375 -0.002724609375 -2.496896484375 -2.026177734375 -4.520349609375 -4.52307421875 -4.523080078125ZM2.5769121093750003 3.37693359375c0.307927734375 0.307927734375 0.8337246093749999 0.1670390625 0.946435546875 -0.253599609375 0.052306640625000005 -0.19521679687500001 -0.00350390625 -0.40351171874999997 -0.1464140625 -0.546421875l-0.565388671875 -0.5653828125c-0.307921875 -0.307927734375 -0.83371875 -0.1670390625 -0.9464296875 0.25359375 -0.052306640625000005 0.19521679687500001 0.00350390625 0.403517578125 0.1464140625 0.546421875Zm0 8.2461328125 -0.5653828125 0.5653828125c-0.307927734375 0.307927734375 -0.1670390625 0.8337246093749999 0.25359375 0.946435546875 0.19521679687500001 0.052306640625000005 0.403517578125 -0.00350390625 0.546421875 -0.1464140625l0.565388671875 -0.5653828125c0.307927734375 -0.307927734375 0.1670390625 -0.8337246093749999 -0.253599609375 -0.946435546875 -0.19521679687500001 -0.052306640625000005 -0.40351171874999997 0.00350390625 -0.546421875 0.1464140625ZM12.02307421875 3.5423085937499996c0.15 0.0001171875 0.293888671875 -0.059373046875 0.40001367187500003 -0.165375l0.5653828125 -0.5653828125c0.307927734375 -0.307927734375 0.1670390625 -0.8337246093749999 -0.25359375 -0.946435546875 -0.19522265625 -0.052306640625000005 -0.403517578125 0.00350390625 -0.5464277343749999 0.1464140625l-0.5653828125 0.5653828125c-0.307927734375 0.307587890625 -0.167408203125 0.83316796875 0.252931640625 0.946048828125 0.04796484375 0.012878906249999999 0.097412109375 0.019388671875000003 0.147076171875 0.01934765625Zm0.40001367187500003 8.0807578125c-0.307927734375 -0.307927734375 -0.8337246093749999 -0.1670390625 -0.946435546875 0.253599609375 -0.052306640625000005 0.19521679687500001 0.00350390625 0.40351171874999997 0.1464140625 0.546421875l0.5653828125 0.5653828125c0.307927734375 0.307927734375 0.8337246093749999 0.1670390625 0.946435546875 -0.25359375 0.052306640625000005 -0.19522265625 -0.00350390625 -0.403517578125 -0.1464140625 -0.5464277343749999ZM1.280771484375 6.934617187500001h-0.565388671875c-0.435234375 0 -0.7072499999999999 0.47115234375000004 -0.48963867187500004 0.84807421875 0.1009921875 0.17492578125 0.287654296875 0.28268554687499997 0.48963867187500004 0.28269140625h0.565388671875c0.43522851562500003 -0.000017578125 0.7072558593749999 -0.47118164062499995 0.48962109374999996 -0.84809765625 -0.100998046875 -0.174919921875 -0.287642578125 -0.28266796875 -0.48962109374999996 -0.28266796875ZM7.5 13.153845703125c-0.312263671875 -0.00001171875 -0.5653828125 0.25311914062499996 -0.5653828125 0.5653828125v0.565388671875c0 0.43522851562500003 0.47115234375000004 0.7072499999999999 0.84807421875 0.4896328125 0.174931640625 -0.1009921875 0.28269140625 -0.287642578125 0.28269140625 -0.4896328125v-0.565388671875c0 -0.312240234375 -0.25313671875 -0.5653710937499999 -0.5653828125 -0.5653828125Zm6.7846171875 -6.219228515625h-0.565388671875c-0.43522851562500003 0.000017578125 -0.7072558593749999 0.47118164062499995 -0.48962109374999996 0.84809765625 0.100998046875 0.174919921875 0.287642578125 0.28266796875 0.48962109374999996 0.28266796875h0.565388671875c0.43522851562500003 0 0.7072499999999999 -0.47115234375000004 0.4896328125 -0.84807421875 -0.100986328125 -0.17492578125 -0.2876484375 -0.28268554687499997 -0.4896328125 -0.28269140625Z" stroke-width="1"></path></svg>