<svg xmlns="http://www.w3.org/2000/svg" version="1.1" fill="currentColor" viewBox="-5.0 -10.0 110.0 135.0">
 <path d="m52.055 2.2969 12.242 25.613 28.145 3.7305c1.25 0.16016 2.1289 1.3086 1.9688 2.5547-0.070312 0.53906-0.32422 1.0078-0.69141 1.3555l-20.578 19.562 5.1523 27.922c0.22656 1.2383-0.59375 2.4258-1.832 2.6562-0.53125 0.097656-1.0508 0.003906-1.4922-0.23438l-24.969-13.527-24.965 13.527c-1.1094 0.59766-2.4961 0.17969-3.0938-0.92969-0.27344-0.51172-0.33203-1.0781-0.21484-1.5977l5.1289-27.816-20.582-19.562c-0.91016-0.87109-0.94922-2.3125-0.082032-3.2266 0.39453-0.41797 0.91016-0.65234 1.4414-0.69922l28.059-3.7188 12.242-25.613c0.54297-1.1328 1.9062-1.6133 3.0391-1.0703 0.48828 0.23438 0.85547 0.61719 1.0742 1.0703zm-38.91 54.719c1.1602-0.48828 2.4961 0.058594 2.9844 1.2148 0.48828 1.1602-0.058594 2.4961-1.2148 2.9844l-10.559 4.4688c-1.1602 0.48828-2.4961-0.058594-2.9844-1.2188-0.48828-1.1602 0.058594-2.4961 1.2148-2.9844l10.559-4.4688zm14.277-40.039c0.89453 0.89453 0.89453 2.3438 0 3.2383-0.89453 0.89453-2.3438 0.89453-3.2383 0l-8.1055-8.1055c-0.89453-0.89453-0.89453-2.3438 0-3.2383 0.89453-0.89453 2.3438-0.89453 3.2383 0zm20.379 68.254c0.015625-1.2617 1.0469-2.2695 2.3086-2.2539 1.2578 0.015626 2.2695 1.0469 2.2539 2.3086l-0.17188 11.465c-0.015625 1.2578-1.0469 2.2695-2.3086 2.2539-1.2617-0.015625-2.2695-1.0469-2.2539-2.3086l0.16797-11.465zm37.277-24.016c-1.1602-0.48828-1.7031-1.8281-1.2148-2.9844 0.48828-1.1602 1.8242-1.7031 2.9844-1.2148l10.559 4.4688c1.1602 0.48828 1.7031 1.8242 1.2148 2.9844-0.48828 1.1602-1.8242 1.7031-2.9844 1.2188l-10.559-4.4688zm-9.2734-41.004c-0.89453 0.89453-2.3438 0.89453-3.2383 0-0.89453-0.89453-0.89453-2.3438 0-3.2383l8.1055-8.1055c0.89453-0.89453 2.3438-0.89453 3.2383 0 0.89453 0.89453 0.89453 2.3438 0 3.2383z" fill-rule="evenodd"/>
</svg>