<!-- 
<svg xmlns="http://www.w3.org/2000/svg" version="1.1" viewBox="-5.0 -10.0 110.0 135.0"><path d="m40.352 94.281c-20.383-4.4258-35.664-22.582-35.664-44.281 0-4.0117 0.52344-7.8984 1.5039-11.605 2.7188-10.277 8.9648-19.133 17.359-25.18 7.4453-5.3633 16.582-8.5234 26.449-8.5234 14.809 0 27.969 7.1172 36.242 18.117 2.5117 3.3438 4.5703 7.043 6.0898 11.008 1.7227 4.4922 2.7461 9.3242 2.9453 14.371 0.023437 0.60156 0.035156 1.207 0.035156 1.8125 0 17.508-9.9492 32.711-24.496 40.254-6.2344 3.2305-13.312 5.0586-20.816 5.0586-3.3086 0-6.5391-0.35547-9.6484-1.0312zm-31.582-53.258c-0.62891 2.8945-0.96094 5.8984-0.96094 8.9766 0 19.508 13.266 35.938 31.262 40.758 0.33984-8.7539 7.5547-15.758 16.395-15.758 7.3516 0 13.578 4.8477 15.664 11.516 12.586-7.3047 21.055-20.93 21.055-36.516 0-0.15625 0-0.3125-0.003906-0.46875-7.168-1.7578-12.496-8.2266-12.496-15.938 0-3.707 1.2305-7.125 3.3047-9.875-7.7344-9.6914-19.645-15.906-32.992-15.906-8.5156 0-16.445 2.5273-23.074 6.8711 2.6836 2.9219 4.3242 6.8203 4.3242 11.098 0 9.0547-7.3516 16.406-16.406 16.406-2.1445 0-4.1953-0.41406-6.0703-1.1641zm15.578-24.512c-6.9688 5.3516-12.227 12.824-14.793 21.453 1.6211 0.70703 3.4102 1.0977 5.2891 1.0977 7.332 0 13.281-5.9492 13.281-13.281 0-3.6016-1.4414-6.875-3.7734-9.2695zm17.836 74.953c2.5312 0.47656 5.1445 0.72266 7.8125 0.72266 6.5586 0 12.773-1.5 18.312-4.1797-1.5039-5.6875-6.6875-9.8828-12.844-9.8828-7.332 0-13.281 5.9492-13.281 13.281v0.058594zm49.836-45.227c-0.35156-3.9453-1.2422-7.7422-2.6094-11.305-1.1641-3.0391-2.6641-5.9062-4.4648-8.5625-1.3516 2.082-2.1328 4.5586-2.1328 7.2227 0 5.9102 3.8672 10.926 9.2109 12.645zm-38.898-24.363c5.1758 0 9.375 4.1992 9.375 9.375s-4.1992 9.375-9.375 9.375c-5.1758 0-9.375-4.1992-9.375-9.375s4.1992-9.375 9.375-9.375zm0 3.125c-3.4492 0-6.25 2.8008-6.25 6.25s2.8008 6.25 6.25 6.25c3.4492 0 6.25-2.8008 6.25-6.25s-2.8008-6.25-6.25-6.25zm-21.875 29.688c3.4492 0 6.25 2.8008 6.25 6.25s-2.8008 6.25-6.25 6.25c-3.4492 0-6.25-2.8008-6.25-6.25s2.8008-6.25 6.25-6.25zm0 3.125c-1.7266 0-3.125 1.3984-3.125 3.125s1.3984 3.125 3.125 3.125c1.7266 0 3.125-1.3984 3.125-3.125s-1.3984-3.125-3.125-3.125zm44.531-3.125c4.7422 0 8.5938 3.8516 8.5938 8.5938s-3.8516 8.5938-8.5938 8.5938c-4.7422 0-8.5938-3.8516-8.5938-8.5938s3.8516-8.5938 8.5938-8.5938zm0 3.125c-3.0195 0-5.4688 2.4492-5.4688 5.4688s2.4492 5.4688 5.4688 5.4688c3.0195 0 5.4688-2.4492 5.4688-5.4688s-2.4492-5.4688-5.4688-5.4688z" fill-rule="evenodd" fill="currentColor" stroke="currentColor" stroke-width="3" /></svg> -->


<svg xmlns="http://www.w3.org/2000/svg" version="1.1" viewBox="-5.0 -10.0 110.0 135.0">
 <path fill="currentColor" stroke="currentColor" stroke-width="2" d="m50 1.7344c-26.617 0-48.266 21.648-48.266 48.266s21.648 48.266 48.266 48.266 48.266-21.648 48.266-48.266-21.648-48.266-48.266-48.266zm0 91.973c-24.102 0-43.707-19.605-43.707-43.707s19.605-43.707 43.707-43.707 43.707 19.605 43.707 43.707-19.605 43.707-43.707 43.707z"/>
 <path fill="currentColor" stroke="currentColor" stroke-width="2" d="m25.031 36.711c-6.0625 0-10.977 4.9141-10.977 10.977s4.9141 10.977 10.977 10.977 10.977-4.9141 10.977-10.977c0-6.0586-4.9141-10.977-10.977-10.977zm-1.1992 19.676c-4.2188 0-7.6406-3.4219-7.6406-7.6406s3.4219-7.6406 7.6406-7.6406 7.6406 3.4219 7.6406 7.6406c0 4.2227-3.4219 7.6406-7.6406 7.6406z"/>
 <path fill="currentColor" stroke="currentColor" stroke-width="2" d="m56.91 13.031c-6.0625 0-10.977 3.3164-10.977 7.4102s4.9141 7.4102 10.977 7.4102 10.977-3.3203 10.977-7.4102-4.9141-7.4102-10.977-7.4102zm-1.1992 13.281c-4.2188 0-7.6406-2.3086-7.6406-5.1562s3.4219-5.1562 7.6406-5.1562 7.6406 2.3086 7.6406 5.1562-3.4219 5.1562-7.6406 5.1562z"/>
 <path fill="currentColor" stroke="currentColor" stroke-width="2" d="m82.477 51.07c-4.7656-1.2578-9.8789 2.4766-11.422 8.3398-1.5469 5.8633 1.0625 11.633 5.8281 12.887 4.7656 1.2578 9.8789-2.4766 11.426-8.3398 1.543-5.8633-1.0664-11.633-5.832-12.887zm1.9922 12.969c-1.0742 4.0781-4.6367 6.6797-7.9531 5.8047s-5.1328-4.8906-4.0586-8.9727c1.0742-4.082 4.6367-6.6797 7.9531-5.8047 3.3203 0.875 5.1367 4.8945 4.0586 8.9727z"/>
 <path fill="currentColor" stroke="currentColor" stroke-width="2" d="m29.707 29.191c3.0469 0 5.5156-2.4688 5.5156-5.5156s-2.4688-5.5156-5.5156-5.5156-5.5156 2.4688-5.5156 5.5156c0.003906 3.0469 2.4727 5.5156 5.5156 5.5156zm-0.60156-8.8242c2.1211 0 3.8359 1.7188 3.8359 3.8398 0 2.1172-1.7188 3.8359-3.8359 3.8359-2.1211 0-3.8359-1.7188-3.8359-3.8359-0.003906-2.1211 1.7148-3.8398 3.8359-3.8398z"/>
 <path fill="currentColor" stroke="currentColor" stroke-width="2" d="m83.598 35.352c1.8125-1.293 1.8438-4.3516 0.074219-6.8281-1.7695-2.4766-4.6719-3.4375-6.4844-2.1445-1.8125 1.293-1.8438 4.3516-0.074219 6.8281 1.7695 2.4805 4.6758 3.4414 6.4844 2.1445zm-5.4883-6.9219c1.2617-0.89844 3.2812-0.23047 4.5156 1.4922 1.2305 1.7266 1.2109 3.8516-0.050781 4.7539-1.2617 0.89844-3.2812 0.23047-4.5117-1.4922-1.2344-1.7227-1.2109-3.8516 0.046875-4.7539z"/>
 <path fill="currentColor" stroke="currentColor" stroke-width="2" d="m48.492 71.523c-3.9375 0-7.1289 3.1914-7.1289 7.1289s3.1914 7.1289 7.1289 7.1289 7.1289-3.1914 7.1289-7.1289c0.003906-3.9414-3.1914-7.1289-7.1289-7.1289zm-0.77734 12.773c-2.7422 0-4.9609-2.2188-4.9609-4.9609 0-2.7422 2.2188-4.9609 4.9609-4.9609 2.7422 0 4.9609 2.2188 4.9609 4.9609 0.003907 2.7422-2.2188 4.9609-4.9609 4.9609z"/>
 <path fill="currentColor" stroke="currentColor" stroke-width="2" d="m20.734 65.484c-1.7266 1.0703-1.9258 3.8828-0.44141 6.2852 1.4844 2.4023 4.0898 3.4844 5.8203 2.418 1.7266-1.0664 1.9258-3.8828 0.4375-6.2812-1.4805-2.4102-4.0859-3.4922-5.8164-2.4219zm4.4766 8.0078c-1.2031 0.74219-3.0156-0.011719-4.0469-1.6836s-0.89453-3.6289 0.30469-4.375c1.2031-0.74219 3.0156 0.011718 4.0469 1.6797 1.0391 1.6758 0.89844 3.6367-0.30469 4.3789z"/>
 <path fill="currentColor" stroke="currentColor" stroke-width="2" d="m56.91 42.984c-4.332 0-7.8438 3.5117-7.8438 7.8438s3.5117 7.8438 7.8438 7.8438c4.332 0 7.8438-3.5117 7.8438-7.8438-0.003906-4.332-3.5117-7.8438-7.8438-7.8438zm-0.85547 14.055c-3.0156 0-5.457-2.4453-5.457-5.457 0-3.0156 2.4414-5.457 5.457-5.457 3.0156 0 5.457 2.4414 5.457 5.457 0 3.0117-2.4453 5.457-5.457 5.457z"/>
</svg>