<svg xmlns="http://www.w3.org/2000/svg" version="1.1" fill="currentColor" viewBox="-5.0 -10.0 110.0 135.0">
 <path d="m55.621 24.305 4.1641 12.898 13.559-0.027344c1.2969-0.003906 2.5039 0.39844 3.4844 1.1094 0.98438 0.71484 1.7422 1.7344 2.1445 2.9688 0.39844 1.2344 0.38672 2.5039 0.011719 3.6602-0.37891 1.1602-1.1172 2.1953-2.1641 2.9531l-10.984 7.9453 4.2148 12.887c0.40234 1.2227 0.39062 2.4922 0.015625 3.6523-0.37891 1.168-1.1172 2.2031-2.1602 2.9648-1.0391 0.75781-2.2539 1.1328-3.4727 1.1328s-2.4258-0.38281-3.4727-1.1445l-10.957-7.9922-10.957 7.9922c-1.043 0.76172-2.2578 1.1445-3.4727 1.1445-1.2227 0-2.4336-0.37891-3.4727-1.1328-1.0469-0.75781-1.7812-1.8008-2.1602-2.9648-0.375-1.1562-0.38672-2.4258 0.015625-3.6523l4.2148-12.887-10.984-7.9453c-1.0469-0.75781-1.7852-1.793-2.1641-2.9531-0.37891-1.1562-0.39063-2.4258 0.011718-3.6602 0.39844-1.2344 1.1562-2.2539 2.1445-2.9688 0.98047-0.71094 2.1836-1.1133 3.4844-1.1094l13.559 0.027344 4.1641-12.898c0.39453-1.2305 1.1523-2.2539 2.1406-2.9688 0.99219-0.72266 2.1953-1.1328 3.4805-1.1328 1.2852 0 2.4883 0.40625 3.4805 1.1328 0.98828 0.71875 1.7422 1.7383 2.1406 2.9688zm-30.859-13.461c-0.62891-1.0938-0.25391-2.4844 0.83984-3.1094 1.0938-0.62891 2.4844-0.25 3.1094 0.83984l4.418 7.6484c0.62891 1.0938 0.25 2.4844-0.83984 3.1094-1.0898 0.62891-2.4844 0.25-3.1094-0.83984zm-16.191 17.871c-1.0938-0.62891-1.4688-2.0195-0.83984-3.1094 0.62891-1.0938 2.0195-1.4688 3.1094-0.83984l7.6484 4.418c1.0938 0.62891 1.4688 2.0195 0.83984 3.1094-0.62891 1.0938-2.0195 1.4688-3.1094 0.83984zm-5.1016 23.578c-1.2617 0-2.2891-1.0234-2.2891-2.2891 0-1.2617 1.0234-2.2891 2.2891-2.2891h8.8359c1.2617 0 2.2891 1.0234 2.2891 2.2891 0 1.2617-1.0234 2.2891-2.2891 2.2891zm7.3672 22.949c-1.0938 0.62891-2.4844 0.25391-3.1094-0.83984-0.62891-1.0938-0.25-2.4844 0.83984-3.1094l7.6484-4.418c1.0938-0.62891 2.4844-0.25 3.1094 0.83984 0.62891 1.0898 0.25 2.4844-0.83984 3.1094zm17.871 16.191c-0.62891 1.0938-2.0195 1.4688-3.1094 0.83984-1.0938-0.62891-1.4688-2.0195-0.83984-3.1094l4.418-7.6484c0.62891-1.0938 2.0195-1.4688 3.1094-0.83984 1.0938 0.62891 1.4688 2.0195 0.83984 3.1094zm23.578 5.1016c0 1.2617-1.0234 2.2891-2.2891 2.2891-1.2617 0-2.2891-1.0234-2.2891-2.2891v-8.8359c0-1.2617 1.0234-2.2891 2.2891-2.2891 1.2617 0 2.2891 1.0234 2.2891 2.2891zm22.949-7.3672c0.62891 1.0938 0.25391 2.4844-0.83984 3.1094-1.0938 0.62891-2.4844 0.25-3.1094-0.83984l-4.418-7.6484c-0.62891-1.0938-0.25-2.4844 0.83984-3.1094 1.0898-0.62891 2.4844-0.25 3.1094 0.83984zm16.191-17.871c1.0938 0.62891 1.4688 2.0195 0.83984 3.1094-0.62891 1.0938-2.0195 1.4688-3.1094 0.83984l-7.6484-4.418c-1.0938-0.62891-1.4688-2.0195-0.83984-3.1094 0.62891-1.0938 2.0195-1.4688 3.1094-0.83984zm5.1016-23.578c1.2617 0 2.2891 1.0234 2.2891 2.2891 0 1.2617-1.0234 2.2891-2.2891 2.2891h-8.8359c-1.2617 0-2.2891-1.0234-2.2891-2.2891 0-1.2617 1.0234-2.2891 2.2891-2.2891zm-7.3672-22.949c1.0938-0.62891 2.4844-0.25391 3.1094 0.83984 0.62891 1.0938 0.25 2.4844-0.83984 3.1094l-7.6484 4.418c-1.0938 0.62891-2.4844 0.25-3.1094-0.83984-0.62891-1.0898-0.25-2.4844 0.83984-3.1094zm-17.871-16.191c0.62891-1.0938 2.0195-1.4688 3.1094-0.83984 1.0938 0.62891 1.4688 2.0195 0.83984 3.1094l-4.418 7.6484c-0.62891 1.0938-2.0195 1.4688-3.1094 0.83984-1.0938-0.62891-1.4688-2.0195-0.83984-3.1094zm-23.578-5.1016c0-1.2617 1.0234-2.2891 2.2891-2.2891 1.2617 0 2.2891 1.0234 2.2891 2.2891v8.8359c0 1.2617-1.0234 2.2891-2.2891 2.2891-1.2617 0-2.2891-1.0234-2.2891-2.2891z" fill-rule="evenodd"/>
</svg>