<svg xmlns="http://www.w3.org/2000/svg" viewBox="-0.5 -0.5 16 16" fill="currentColor" height="16" width="16"><path d="M7.03125 2.34375V0.9375a0.46875 0.46875 0 0 1 0.9375 0v1.40625a0.46875 0.46875 0 0 1 -0.9375 0Zm0.46875 1.40625a3.75 3.75 0 1 0 3.75 3.75 3.7541015625 3.7541015625 0 0 0 -3.75 -3.75Zm-4.0816406249999995 0.331640625a0.46875 0.46875 0 0 0 0.66328125 -0.66328125l-0.9375 -0.9375a0.46875 0.46875 0 0 0 -0.66328125 0.66328125Zm0 6.83671875 -0.9375 0.9375a0.46875 0.46875 0 0 0 0.66328125 0.66328125l0.9375 -0.9375a0.46875 0.46875 0 0 0 -0.66328125 -0.66328125ZM11.25 4.21875a0.46875 0.46875 0 0 0 0.331640625 -0.13710937499999998l0.9375 -0.9375a0.46875 0.46875 0 0 0 -0.66328125 -0.66328125l-0.9375 0.9375A0.46875 0.46875 0 0 0 11.25 4.21875Zm0.331640625 6.6996093750000005a0.46875 0.46875 0 0 0 -0.66328125 0.66328125l0.9375 0.9375a0.46875 0.46875 0 0 0 0.66328125 -0.66328125ZM2.8125 7.5a0.46875 0.46875 0 0 0 -0.46875 -0.46875H0.9375a0.46875 0.46875 0 0 0 0 0.9375h1.40625a0.46875 0.46875 0 0 0 0.46875 -0.46875Zm4.6875 4.6875a0.46875 0.46875 0 0 0 -0.46875 0.46875v1.40625a0.46875 0.46875 0 0 0 0.9375 0v-1.40625a0.46875 0.46875 0 0 0 -0.46875 -0.46875Zm6.5625 -5.15625h-1.40625a0.46875 0.46875 0 0 0 0 0.9375h1.40625a0.46875 0.46875 0 0 0 0 -0.9375Z" stroke-width="1"></path></svg>