

<svg xmlns="http://www.w3.org/2000/svg" version="1.1" viewBox="-5.0 -10.0 110.0 135.0">
 <path d="m25.469 11.906c7.0703-4.5703 15.492-7.2188 24.531-7.2188 14.535 0 27.48 6.8594 35.773 17.512-0.42969 0.054687-0.83203 0.23047-1.125 0.50781-3.0859 2.8984-4.9609 6.7109-4.9609 10.883 0 7.8945 6.707 14.492 15.625 16.055v0.35156c0 17.168-9.5703 32.117-23.66 39.805-0.003906-0.054687-0.007813-0.10547-0.019532-0.16406-1.3359-8.3125-8.0703-14.645-16.164-14.645-9.0547 0-16.406 7.9141-16.406 17.668 0 0.44531 0.015625 0.88672 0.046875 1.3242-19.758-4.8828-34.422-22.742-34.422-43.992 0-3.3789 0.37109-6.668 1.0703-9.8359 2.4297 1.293 5.1953 2.0234 8.1367 2.0234 9.5781 0 17.352-7.7734 17.352-17.352 0-5.1328-2.2344-9.75-5.7812-12.93zm27.656 9.9688c-5.1758 0-9.375 4.1992-9.375 9.375s4.1992 9.375 9.375 9.375 9.375-4.1992 9.375-9.375-4.1992-9.375-9.375-9.375zm0 3.125c3.4492 0 6.25 2.8008 6.25 6.25s-2.8008 6.25-6.25 6.25-6.25-2.8008-6.25-6.25 2.8008-6.25 6.25-6.25zm-21.875 29.688c-3.4492 0-6.25 2.8008-6.25 6.25s2.8008 6.25 6.25 6.25 6.25-2.8008 6.25-6.25-2.8008-6.25-6.25-6.25zm0 3.125c1.7266 0 3.125 1.3984 3.125 3.125s-1.3984 3.125-3.125 3.125-3.125-1.3984-3.125-3.125 1.3984-3.125 3.125-3.125zm44.531-3.125c-4.7422 0-8.5938 3.8516-8.5938 8.5938s3.8516 8.5938 8.5938 8.5938 8.5938-3.8516 8.5938-8.5938-3.8516-8.5938-8.5938-8.5938zm0 3.125c3.0195 0 5.4688 2.4492 5.4688 5.4688s-2.4492 5.4688-5.4688 5.4688-5.4688-2.4492-5.4688-5.4688 2.4492-5.4688 5.4688-5.4688zm-67.477-20.09c2.7148-9.125 8.2734-17.035 15.648-22.695 2.4688 2.5352 3.9922 5.9922 3.9922 9.8047 0 7.7539-6.293 14.047-14.047 14.047-1.9883 0-3.8789-0.41406-5.5938-1.1602zm33.883 55.008v-0.0625c0-7.8945 5.9492-14.305 13.281-14.305 6.1562 0 11.34 4.5234 12.844 10.648-5.5391 2.8828-11.754 4.4961-18.312 4.4961-2.668 0-5.2812-0.26953-7.8125-0.77734z" fill-rule="evenodd" fill="currentColor" /></svg>



